<svg class="rich-terminal" viewBox="0 0 2227 1026.0" xmlns="http://www.w3.org/2000/svg">
    <!-- Generated with Rich https://www.textualize.io -->
    <style>

    @font-face {
        font-family: "Fira Code";
        src: local("FiraCode-Regular"),
                url("https://cdnjs.cloudflare.com/ajax/libs/firacode/6.2.0/woff2/FiraCode-Regular.woff2") format("woff2"),
                url("https://cdnjs.cloudflare.com/ajax/libs/firacode/6.2.0/woff/FiraCode-Regular.woff") format("woff");
        font-style: normal;
        font-weight: 400;
    }
    @font-face {
        font-family: "Fira Code";
        src: local("FiraCode-Bold"),
                url("https://cdnjs.cloudflare.com/ajax/libs/firacode/6.2.0/woff2/FiraCode-Bold.woff2") format("woff2"),
                url("https://cdnjs.cloudflare.com/ajax/libs/firacode/6.2.0/woff/FiraCode-Bold.woff") format("woff");
        font-style: bold;
        font-weight: 700;
    }

    .terminal-3805869650-matrix {
        font-family: Fira Code, monospace;
        font-size: 20px;
        line-height: 24.4px;
        font-variant-east-asian: full-width;
    }

    .terminal-3805869650-title {
        font-size: 18px;
        font-weight: bold;
        font-family: arial;
    }

    .terminal-3805869650-r1 { fill: #c5c8c6 }
.terminal-3805869650-r2 { fill: #e0e0e0 }
.terminal-3805869650-r3 { fill: #c5c6c7 }
.terminal-3805869650-r4 { fill: #7f7f7f }
.terminal-3805869650-r5 { fill: #313131 }
.terminal-3805869650-r6 { fill: #0178d4 }
.terminal-3805869650-r7 { fill: #fea62b;font-weight: bold }
.terminal-3805869650-r8 { fill: #e0e0e0;font-weight: bold }
.terminal-3805869650-r9 { fill: #ffa62b;font-weight: bold }
.terminal-3805869650-r10 { fill: #495259 }
    </style>

    <defs>
    <clipPath id="terminal-3805869650-clip-terminal">
      <rect x="0" y="0" width="2207.2" height="975.0" />
    </clipPath>
    <clipPath id="terminal-3805869650-line-0">
    <rect x="0" y="1.5" width="2208.2" height="24.65"/>
            </clipPath>
<clipPath id="terminal-3805869650-line-1">
    <rect x="0" y="25.9" width="2208.2" height="24.65"/>
            </clipPath>
<clipPath id="terminal-3805869650-line-2">
    <rect x="0" y="50.3" width="2208.2" height="24.65"/>
            </clipPath>
<clipPath id="terminal-3805869650-line-3">
    <rect x="0" y="74.7" width="2208.2" height="24.65"/>
            </clipPath>
<clipPath id="terminal-3805869650-line-4">
    <rect x="0" y="99.1" width="2208.2" height="24.65"/>
            </clipPath>
<clipPath id="terminal-3805869650-line-5">
    <rect x="0" y="123.5" width="2208.2" height="24.65"/>
            </clipPath>
<clipPath id="terminal-3805869650-line-6">
    <rect x="0" y="147.9" width="2208.2" height="24.65"/>
            </clipPath>
<clipPath id="terminal-3805869650-line-7">
    <rect x="0" y="172.3" width="2208.2" height="24.65"/>
            </clipPath>
<clipPath id="terminal-3805869650-line-8">
    <rect x="0" y="196.7" width="2208.2" height="24.65"/>
            </clipPath>
<clipPath id="terminal-3805869650-line-9">
    <rect x="0" y="221.1" width="2208.2" height="24.65"/>
            </clipPath>
<clipPath id="terminal-3805869650-line-10">
    <rect x="0" y="245.5" width="2208.2" height="24.65"/>
            </clipPath>
<clipPath id="terminal-3805869650-line-11">
    <rect x="0" y="269.9" width="2208.2" height="24.65"/>
            </clipPath>
<clipPath id="terminal-3805869650-line-12">
    <rect x="0" y="294.3" width="2208.2" height="24.65"/>
            </clipPath>
<clipPath id="terminal-3805869650-line-13">
    <rect x="0" y="318.7" width="2208.2" height="24.65"/>
            </clipPath>
<clipPath id="terminal-3805869650-line-14">
    <rect x="0" y="343.1" width="2208.2" height="24.65"/>
            </clipPath>
<clipPath id="terminal-3805869650-line-15">
    <rect x="0" y="367.5" width="2208.2" height="24.65"/>
            </clipPath>
<clipPath id="terminal-3805869650-line-16">
    <rect x="0" y="391.9" width="2208.2" height="24.65"/>
            </clipPath>
<clipPath id="terminal-3805869650-line-17">
    <rect x="0" y="416.3" width="2208.2" height="24.65"/>
            </clipPath>
<clipPath id="terminal-3805869650-line-18">
    <rect x="0" y="440.7" width="2208.2" height="24.65"/>
            </clipPath>
<clipPath id="terminal-3805869650-line-19">
    <rect x="0" y="465.1" width="2208.2" height="24.65"/>
            </clipPath>
<clipPath id="terminal-3805869650-line-20">
    <rect x="0" y="489.5" width="2208.2" height="24.65"/>
            </clipPath>
<clipPath id="terminal-3805869650-line-21">
    <rect x="0" y="513.9" width="2208.2" height="24.65"/>
            </clipPath>
<clipPath id="terminal-3805869650-line-22">
    <rect x="0" y="538.3" width="2208.2" height="24.65"/>
            </clipPath>
<clipPath id="terminal-3805869650-line-23">
    <rect x="0" y="562.7" width="2208.2" height="24.65"/>
            </clipPath>
<clipPath id="terminal-3805869650-line-24">
    <rect x="0" y="587.1" width="2208.2" height="24.65"/>
            </clipPath>
<clipPath id="terminal-3805869650-line-25">
    <rect x="0" y="611.5" width="2208.2" height="24.65"/>
            </clipPath>
<clipPath id="terminal-3805869650-line-26">
    <rect x="0" y="635.9" width="2208.2" height="24.65"/>
            </clipPath>
<clipPath id="terminal-3805869650-line-27">
    <rect x="0" y="660.3" width="2208.2" height="24.65"/>
            </clipPath>
<clipPath id="terminal-3805869650-line-28">
    <rect x="0" y="684.7" width="2208.2" height="24.65"/>
            </clipPath>
<clipPath id="terminal-3805869650-line-29">
    <rect x="0" y="709.1" width="2208.2" height="24.65"/>
            </clipPath>
<clipPath id="terminal-3805869650-line-30">
    <rect x="0" y="733.5" width="2208.2" height="24.65"/>
            </clipPath>
<clipPath id="terminal-3805869650-line-31">
    <rect x="0" y="757.9" width="2208.2" height="24.65"/>
            </clipPath>
<clipPath id="terminal-3805869650-line-32">
    <rect x="0" y="782.3" width="2208.2" height="24.65"/>
            </clipPath>
<clipPath id="terminal-3805869650-line-33">
    <rect x="0" y="806.7" width="2208.2" height="24.65"/>
            </clipPath>
<clipPath id="terminal-3805869650-line-34">
    <rect x="0" y="831.1" width="2208.2" height="24.65"/>
            </clipPath>
<clipPath id="terminal-3805869650-line-35">
    <rect x="0" y="855.5" width="2208.2" height="24.65"/>
            </clipPath>
<clipPath id="terminal-3805869650-line-36">
    <rect x="0" y="879.9" width="2208.2" height="24.65"/>
            </clipPath>
<clipPath id="terminal-3805869650-line-37">
    <rect x="0" y="904.3" width="2208.2" height="24.65"/>
            </clipPath>
<clipPath id="terminal-3805869650-line-38">
    <rect x="0" y="928.7" width="2208.2" height="24.65"/>
            </clipPath>
    </defs>

    <rect fill="#292929" stroke="rgba(255,255,255,0.35)" stroke-width="1" x="1" y="1" width="2225" height="1024" rx="8"/><text class="terminal-3805869650-title" fill="#c5c8c6" text-anchor="middle" x="1112" y="27">IB&#160;Box&#160;Spread&#160;Terminal</text>
            <g transform="translate(26,22)">
            <circle cx="0" cy="0" r="7" fill="#ff5f57"/>
            <circle cx="22" cy="0" r="7" fill="#febc2e"/>
            <circle cx="44" cy="0" r="7" fill="#28c840"/>
            </g>
        
    <g transform="translate(9, 41)" clip-path="url(#terminal-3805869650-clip-terminal)">
    <rect fill="#242f38" x="0" y="1.5" width="12.2" height="24.65" shape-rendering="crispEdges"/><rect fill="#242f38" x="12.2" y="1.5" width="12.2" height="24.65" shape-rendering="crispEdges"/><rect fill="#242f38" x="24.4" y="1.5" width="61" height="24.65" shape-rendering="crispEdges"/><rect fill="#242f38" x="85.4" y="1.5" width="12.2" height="24.65" shape-rendering="crispEdges"/><rect fill="#242f38" x="97.6" y="1.5" width="854" height="24.65" shape-rendering="crispEdges"/><rect fill="#242f38" x="951.6" y="1.5" width="268.4" height="24.65" shape-rendering="crispEdges"/><rect fill="#242f38" x="1220" y="1.5" width="866.2" height="24.65" shape-rendering="crispEdges"/><rect fill="#2c363f" x="2086.2" y="1.5" width="12.2" height="24.65" shape-rendering="crispEdges"/><rect fill="#2c363f" x="2098.4" y="1.5" width="97.6" height="24.65" shape-rendering="crispEdges"/><rect fill="#2c363f" x="2196" y="1.5" width="12.2" height="24.65" shape-rendering="crispEdges"/><rect fill="#1e1e1e" x="0" y="25.9" width="12.2" height="24.65" shape-rendering="crispEdges"/><rect fill="#1e1e1e" x="12.2" y="25.9" width="109.8" height="24.65" shape-rendering="crispEdges"/><rect fill="#1e1e1e" x="122" y="25.9" width="12.2" height="24.65" shape-rendering="crispEdges"/><rect fill="#1e1e1e" x="134.2" y="25.9" width="12.2" height="24.65" shape-rendering="crispEdges"/><rect fill="#1e1e1e" x="146.4" y="25.9" width="207.4" height="24.65" shape-rendering="crispEdges"/><rect fill="#1e1e1e" x="353.8" y="25.9" width="12.2" height="24.65" shape-rendering="crispEdges"/><rect fill="#1e1e1e" x="366" y="25.9" width="12.2" height="24.65" shape-rendering="crispEdges"/><rect fill="#1e1e1e" x="378.2" y="25.9" width="109.8" height="24.65" shape-rendering="crispEdges"/><rect fill="#1e1e1e" x="488" y="25.9" width="12.2" height="24.65" shape-rendering="crispEdges"/><rect fill="#1e1e1e" x="500.2" y="25.9" width="12.2" height="24.65" shape-rendering="crispEdges"/><rect fill="#1e1e1e" x="512.4" y="25.9" width="122" height="24.65" shape-rendering="crispEdges"/><rect fill="#1e1e1e" x="634.4" y="25.9" width="12.2" height="24.65" shape-rendering="crispEdges"/><rect fill="#1e1e1e" x="646.6" y="25.9" width="12.2" height="24.65" shape-rendering="crispEdges"/><rect fill="#1e1e1e" x="658.8" y="25.9" width="158.6" height="24.65" shape-rendering="crispEdges"/><rect fill="#1e1e1e" x="817.4" y="25.9" width="12.2" height="24.65" shape-rendering="crispEdges"/><rect fill="#1e1e1e" x="829.6" y="25.9" width="12.2" height="24.65" shape-rendering="crispEdges"/><rect fill="#1e1e1e" x="841.8" y="25.9" width="109.8" height="24.65" shape-rendering="crispEdges"/><rect fill="#1e1e1e" x="951.6" y="25.9" width="12.2" height="24.65" shape-rendering="crispEdges"/><rect fill="#1e1e1e" x="963.8" y="25.9" width="12.2" height="24.65" shape-rendering="crispEdges"/><rect fill="#1e1e1e" x="976" y="25.9" width="97.6" height="24.65" shape-rendering="crispEdges"/><rect fill="#1e1e1e" x="1073.6" y="25.9" width="12.2" height="24.65" shape-rendering="crispEdges"/><rect fill="#1e1e1e" x="1085.8" y="25.9" width="12.2" height="24.65" shape-rendering="crispEdges"/><rect fill="#1e1e1e" x="1098" y="25.9" width="73.2" height="24.65" shape-rendering="crispEdges"/><rect fill="#1e1e1e" x="1171.2" y="25.9" width="12.2" height="24.65" shape-rendering="crispEdges"/><rect fill="#1e1e1e" x="1183.4" y="25.9" width="12.2" height="24.65" shape-rendering="crispEdges"/><rect fill="#1e1e1e" x="1195.6" y="25.9" width="73.2" height="24.65" shape-rendering="crispEdges"/><rect fill="#1e1e1e" x="1268.8" y="25.9" width="12.2" height="24.65" shape-rendering="crispEdges"/><rect fill="#1e1e1e" x="1281" y="25.9" width="12.2" height="24.65" shape-rendering="crispEdges"/><rect fill="#1e1e1e" x="1293.2" y="25.9" width="109.8" height="24.65" shape-rendering="crispEdges"/><rect fill="#1e1e1e" x="1403" y="25.9" width="12.2" height="24.65" shape-rendering="crispEdges"/><rect fill="#1e1e1e" x="1415.2" y="25.9" width="12.2" height="24.65" shape-rendering="crispEdges"/><rect fill="#1e1e1e" x="1427.4" y="25.9" width="61" height="24.65" shape-rendering="crispEdges"/><rect fill="#1e1e1e" x="1488.4" y="25.9" width="12.2" height="24.65" shape-rendering="crispEdges"/><rect fill="#1e1e1e" x="1500.6" y="25.9" width="12.2" height="24.65" shape-rendering="crispEdges"/><rect fill="#1e1e1e" x="1512.8" y="25.9" width="48.8" height="24.65" shape-rendering="crispEdges"/><rect fill="#1e1e1e" x="1561.6" y="25.9" width="12.2" height="24.65" shape-rendering="crispEdges"/><rect fill="#1e1e1e" x="1573.8" y="25.9" width="634.4" height="24.65" shape-rendering="crispEdges"/><rect fill="#1e1e1e" x="0" y="50.3" width="500.2" height="24.65" shape-rendering="crispEdges"/><rect fill="#1e1e1e" x="500.2" y="50.3" width="12.2" height="24.65" shape-rendering="crispEdges"/><rect fill="#1e1e1e" x="512.4" y="50.3" width="122" height="24.65" shape-rendering="crispEdges"/><rect fill="#1e1e1e" x="634.4" y="50.3" width="12.2" height="24.65" shape-rendering="crispEdges"/><rect fill="#1e1e1e" x="646.6" y="50.3" width="1561.6" height="24.65" shape-rendering="crispEdges"/><rect fill="#1e1e1e" x="0" y="74.7" width="2208.2" height="24.65" shape-rendering="crispEdges"/><rect fill="#1e1e1e" x="0" y="99.1" width="12.2" height="24.65" shape-rendering="crispEdges"/><rect fill="#1e1e1e" x="12.2" y="99.1" width="268.4" height="24.65" shape-rendering="crispEdges"/><rect fill="#1e1e1e" x="280.6" y="99.1" width="1927.6" height="24.65" shape-rendering="crispEdges"/><rect fill="#1e1e1e" x="0" y="123.5" width="2208.2" height="24.65" shape-rendering="crispEdges"/><rect fill="#1e1e1e" x="0" y="147.9" width="268.4" height="24.65" shape-rendering="crispEdges"/><rect fill="#1e1e1e" x="268.4" y="147.9" width="1939.8" height="24.65" shape-rendering="crispEdges"/><rect fill="#2d3740" x="0" y="172.3" width="122" height="24.65" shape-rendering="crispEdges"/><rect fill="#2d3740" x="122" y="172.3" width="73.2" height="24.65" shape-rendering="crispEdges"/><rect fill="#2d3740" x="195.2" y="172.3" width="158.6" height="24.65" shape-rendering="crispEdges"/><rect fill="#2d3740" x="353.8" y="172.3" width="158.6" height="24.65" shape-rendering="crispEdges"/><rect fill="#2b3339" x="512.4" y="172.3" width="1695.8" height="24.65" shape-rendering="crispEdges"/><rect fill="#272727" x="0" y="196.7" width="2208.2" height="24.65" shape-rendering="crispEdges"/><rect fill="#272727" x="0" y="221.1" width="2208.2" height="24.65" shape-rendering="crispEdges"/><rect fill="#272727" x="0" y="245.5" width="2208.2" height="24.65" shape-rendering="crispEdges"/><rect fill="#272727" x="0" y="269.9" width="2208.2" height="24.65" shape-rendering="crispEdges"/><rect fill="#272727" x="0" y="294.3" width="2208.2" height="24.65" shape-rendering="crispEdges"/><rect fill="#272727" x="0" y="318.7" width="2208.2" height="24.65" shape-rendering="crispEdges"/><rect fill="#272727" x="0" y="343.1" width="2208.2" height="24.65" shape-rendering="crispEdges"/><rect fill="#272727" x="0" y="367.5" width="2208.2" height="24.65" shape-rendering="crispEdges"/><rect fill="#272727" x="0" y="391.9" width="2208.2" height="24.65" shape-rendering="crispEdges"/><rect fill="#272727" x="0" y="416.3" width="2208.2" height="24.65" shape-rendering="crispEdges"/><rect fill="#272727" x="0" y="440.7" width="2208.2" height="24.65" shape-rendering="crispEdges"/><rect fill="#272727" x="0" y="465.1" width="2208.2" height="24.65" shape-rendering="crispEdges"/><rect fill="#272727" x="0" y="489.5" width="2208.2" height="24.65" shape-rendering="crispEdges"/><rect fill="#272727" x="0" y="513.9" width="2208.2" height="24.65" shape-rendering="crispEdges"/><rect fill="#272727" x="0" y="538.3" width="2208.2" height="24.65" shape-rendering="crispEdges"/><rect fill="#272727" x="0" y="562.7" width="2208.2" height="24.65" shape-rendering="crispEdges"/><rect fill="#272727" x="0" y="587.1" width="2208.2" height="24.65" shape-rendering="crispEdges"/><rect fill="#272727" x="0" y="611.5" width="2208.2" height="24.65" shape-rendering="crispEdges"/><rect fill="#272727" x="0" y="635.9" width="2208.2" height="24.65" shape-rendering="crispEdges"/><rect fill="#272727" x="0" y="660.3" width="2208.2" height="24.65" shape-rendering="crispEdges"/><rect fill="#272727" x="0" y="684.7" width="2208.2" height="24.65" shape-rendering="crispEdges"/><rect fill="#272727" x="0" y="709.1" width="2208.2" height="24.65" shape-rendering="crispEdges"/><rect fill="#272727" x="0" y="733.5" width="2208.2" height="24.65" shape-rendering="crispEdges"/><rect fill="#272727" x="0" y="757.9" width="2208.2" height="24.65" shape-rendering="crispEdges"/><rect fill="#272727" x="0" y="782.3" width="2208.2" height="24.65" shape-rendering="crispEdges"/><rect fill="#272727" x="0" y="806.7" width="2208.2" height="24.65" shape-rendering="crispEdges"/><rect fill="#272727" x="0" y="831.1" width="2208.2" height="24.65" shape-rendering="crispEdges"/><rect fill="#272727" x="0" y="855.5" width="2208.2" height="24.65" shape-rendering="crispEdges"/><rect fill="#272727" x="0" y="879.9" width="2208.2" height="24.65" shape-rendering="crispEdges"/><rect fill="#272727" x="0" y="904.3" width="2208.2" height="24.65" shape-rendering="crispEdges"/><rect fill="#1e1e1e" x="0" y="928.7" width="2208.2" height="24.65" shape-rendering="crispEdges"/><rect fill="#242f38" x="0" y="953.1" width="36.6" height="24.65" shape-rendering="crispEdges"/><rect fill="#242f38" x="36.6" y="953.1" width="61" height="24.65" shape-rendering="crispEdges"/><rect fill="#242f38" x="97.6" y="953.1" width="48.8" height="24.65" shape-rendering="crispEdges"/><rect fill="#242f38" x="146.4" y="953.1" width="61" height="24.65" shape-rendering="crispEdges"/><rect fill="#242f38" x="207.4" y="953.1" width="48.8" height="24.65" shape-rendering="crispEdges"/><rect fill="#242f38" x="256.2" y="953.1" width="73.2" height="24.65" shape-rendering="crispEdges"/><rect fill="#242f38" x="329.4" y="953.1" width="48.8" height="24.65" shape-rendering="crispEdges"/><rect fill="#242f38" x="378.2" y="953.1" width="97.6" height="24.65" shape-rendering="crispEdges"/><rect fill="#242f38" x="475.8" y="953.1" width="1586" height="24.65" shape-rendering="crispEdges"/><rect fill="#242f38" x="2061.8" y="953.1" width="12.2" height="24.65" shape-rendering="crispEdges"/><rect fill="#242f38" x="2074" y="953.1" width="24.4" height="24.65" shape-rendering="crispEdges"/><rect fill="#242f38" x="2098.4" y="953.1" width="97.6" height="24.65" shape-rendering="crispEdges"/><rect fill="#242f38" x="2196" y="953.1" width="12.2" height="24.65" shape-rendering="crispEdges"/>
    <g class="terminal-3805869650-matrix">
    <text class="terminal-3805869650-r2" x="12.2" y="20" textLength="12.2" clip-path="url(#terminal-3805869650-line-0)">⭘</text><text class="terminal-3805869650-r2" x="951.6" y="20" textLength="268.4" clip-path="url(#terminal-3805869650-line-0)">IB&#160;Box&#160;Spread&#160;Terminal</text><text class="terminal-3805869650-r3" x="2098.4" y="20" textLength="97.6" clip-path="url(#terminal-3805869650-line-0)">11:49:52</text><text class="terminal-3805869650-r1" x="2208.2" y="20" textLength="12.2" clip-path="url(#terminal-3805869650-line-0)">
</text><text class="terminal-3805869650-r4" x="12.2" y="44.4" textLength="109.8" clip-path="url(#terminal-3805869650-line-1)">Dashboard</text><text class="terminal-3805869650-r4" x="146.4" y="44.4" textLength="207.4" clip-path="url(#terminal-3805869650-line-1)">Unified&#160;Positions</text><text class="terminal-3805869650-r4" x="378.2" y="44.4" textLength="109.8" clip-path="url(#terminal-3805869650-line-1)">Cash&#160;Flow</text><text class="terminal-3805869650-r2" x="512.4" y="44.4" textLength="122" clip-path="url(#terminal-3805869650-line-1)">Simulation</text><text class="terminal-3805869650-r4" x="658.8" y="44.4" textLength="158.6" clip-path="url(#terminal-3805869650-line-1)">Relationships</text><text class="terminal-3805869650-r4" x="841.8" y="44.4" textLength="109.8" clip-path="url(#terminal-3805869650-line-1)">Positions</text><text class="terminal-3805869650-r4" x="976" y="44.4" textLength="97.6" clip-path="url(#terminal-3805869650-line-1)">Historic</text><text class="terminal-3805869650-r4" x="1098" y="44.4" textLength="73.2" clip-path="url(#terminal-3805869650-line-1)">Orders</text><text class="terminal-3805869650-r4" x="1195.6" y="44.4" textLength="73.2" clip-path="url(#terminal-3805869650-line-1)">Alerts</text><text class="terminal-3805869650-r4" x="1293.2" y="44.4" textLength="109.8" clip-path="url(#terminal-3805869650-line-1)">Scenarios</text><text class="terminal-3805869650-r4" x="1427.4" y="44.4" textLength="61" clip-path="url(#terminal-3805869650-line-1)">Loans</text><text class="terminal-3805869650-r4" x="1512.8" y="44.4" textLength="48.8" clip-path="url(#terminal-3805869650-line-1)">Logs</text><text class="terminal-3805869650-r1" x="2208.2" y="44.4" textLength="12.2" clip-path="url(#terminal-3805869650-line-1)">
</text><text class="terminal-3805869650-r5" x="0" y="68.8" textLength="500.2" clip-path="url(#terminal-3805869650-line-2)">━━━━━━━━━━━━━━━━━━━━━━━━━━━━━━━━━━━━━━━━━</text><text class="terminal-3805869650-r5" x="500.2" y="68.8" textLength="12.2" clip-path="url(#terminal-3805869650-line-2)">╸</text><text class="terminal-3805869650-r6" x="512.4" y="68.8" textLength="122" clip-path="url(#terminal-3805869650-line-2)">━━━━━━━━━━</text><text class="terminal-3805869650-r5" x="634.4" y="68.8" textLength="12.2" clip-path="url(#terminal-3805869650-line-2)">╺</text><text class="terminal-3805869650-r5" x="646.6" y="68.8" textLength="1561.6" clip-path="url(#terminal-3805869650-line-2)">━━━━━━━━━━━━━━━━━━━━━━━━━━━━━━━━━━━━━━━━━━━━━━━━━━━━━━━━━━━━━━━━━━━━━━━━━━━━━━━━━━━━━━━━━━━━━━━━━━━━━━━━━━━━━━━━━━━━━━━━━━━━━━━━</text><text class="terminal-3805869650-r1" x="2208.2" y="68.8" textLength="12.2" clip-path="url(#terminal-3805869650-line-2)">
</text><text class="terminal-3805869650-r1" x="2208.2" y="93.2" textLength="12.2" clip-path="url(#terminal-3805869650-line-3)">
</text><text class="terminal-3805869650-r7" x="12.2" y="117.6" textLength="268.4" clip-path="url(#terminal-3805869650-line-4)">Opportunity&#160;Simulation</text><text class="terminal-3805869650-r1" x="2208.2" y="117.6" textLength="12.2" clip-path="url(#terminal-3805869650-line-4)">
</text><text class="terminal-3805869650-r1" x="2208.2" y="142" textLength="12.2" clip-path="url(#terminal-3805869650-line-5)">
</text><text class="terminal-3805869650-r2" x="0" y="166.4" textLength="268.4" clip-path="url(#terminal-3805869650-line-6)">Available&#160;Scenarios:&#160;0</text><text class="terminal-3805869650-r1" x="2208.2" y="166.4" textLength="12.2" clip-path="url(#terminal-3805869650-line-6)">
</text><text class="terminal-3805869650-r8" x="0" y="190.8" textLength="122" clip-path="url(#terminal-3805869650-line-7)">&#160;Scenario&#160;</text><text class="terminal-3805869650-r8" x="122" y="190.8" textLength="73.2" clip-path="url(#terminal-3805869650-line-7)">&#160;Type&#160;</text><text class="terminal-3805869650-r8" x="195.2" y="190.8" textLength="158.6" clip-path="url(#terminal-3805869650-line-7)">&#160;Description&#160;</text><text class="terminal-3805869650-r8" x="353.8" y="190.8" textLength="158.6" clip-path="url(#terminal-3805869650-line-7)">&#160;Net&#160;Benefit&#160;</text><text class="terminal-3805869650-r1" x="2208.2" y="190.8" textLength="12.2" clip-path="url(#terminal-3805869650-line-7)">
</text><text class="terminal-3805869650-r1" x="2208.2" y="215.2" textLength="12.2" clip-path="url(#terminal-3805869650-line-8)">
</text><text class="terminal-3805869650-r1" x="2208.2" y="239.6" textLength="12.2" clip-path="url(#terminal-3805869650-line-9)">
</text><text class="terminal-3805869650-r1" x="2208.2" y="264" textLength="12.2" clip-path="url(#terminal-3805869650-line-10)">
</text><text class="terminal-3805869650-r1" x="2208.2" y="288.4" textLength="12.2" clip-path="url(#terminal-3805869650-line-11)">
</text><text class="terminal-3805869650-r1" x="2208.2" y="312.8" textLength="12.2" clip-path="url(#terminal-3805869650-line-12)">
</text><text class="terminal-3805869650-r1" x="2208.2" y="337.2" textLength="12.2" clip-path="url(#terminal-3805869650-line-13)">
</text><text class="terminal-3805869650-r1" x="2208.2" y="361.6" textLength="12.2" clip-path="url(#terminal-3805869650-line-14)">
</text><text class="terminal-3805869650-r1" x="2208.2" y="386" textLength="12.2" clip-path="url(#terminal-3805869650-line-15)">
</text><text class="terminal-3805869650-r1" x="2208.2" y="410.4" textLength="12.2" clip-path="url(#terminal-3805869650-line-16)">
</text><text class="terminal-3805869650-r1" x="2208.2" y="434.8" textLength="12.2" clip-path="url(#terminal-3805869650-line-17)">
</text><text class="terminal-3805869650-r1" x="2208.2" y="459.2" textLength="12.2" clip-path="url(#terminal-3805869650-line-18)">
</text><text class="terminal-3805869650-r1" x="2208.2" y="483.6" textLength="12.2" clip-path="url(#terminal-3805869650-line-19)">
</text><text class="terminal-3805869650-r1" x="2208.2" y="508" textLength="12.2" clip-path="url(#terminal-3805869650-line-20)">
</text><text class="terminal-3805869650-r1" x="2208.2" y="532.4" textLength="12.2" clip-path="url(#terminal-3805869650-line-21)">
</text><text class="terminal-3805869650-r1" x="2208.2" y="556.8" textLength="12.2" clip-path="url(#terminal-3805869650-line-22)">
</text><text class="terminal-3805869650-r1" x="2208.2" y="581.2" textLength="12.2" clip-path="url(#terminal-3805869650-line-23)">
</text><text class="terminal-3805869650-r1" x="2208.2" y="605.6" textLength="12.2" clip-path="url(#terminal-3805869650-line-24)">
</text><text class="terminal-3805869650-r1" x="2208.2" y="630" textLength="12.2" clip-path="url(#terminal-3805869650-line-25)">
</text><text class="terminal-3805869650-r1" x="2208.2" y="654.4" textLength="12.2" clip-path="url(#terminal-3805869650-line-26)">
</text><text class="terminal-3805869650-r1" x="2208.2" y="678.8" textLength="12.2" clip-path="url(#terminal-3805869650-line-27)">
</text><text class="terminal-3805869650-r1" x="2208.2" y="703.2" textLength="12.2" clip-path="url(#terminal-3805869650-line-28)">
</text><text class="terminal-3805869650-r1" x="2208.2" y="727.6" textLength="12.2" clip-path="url(#terminal-3805869650-line-29)">
</text><text class="terminal-3805869650-r1" x="2208.2" y="752" textLength="12.2" clip-path="url(#terminal-3805869650-line-30)">
</text><text class="terminal-3805869650-r1" x="2208.2" y="776.4" textLength="12.2" clip-path="url(#terminal-3805869650-line-31)">
</text><text class="terminal-3805869650-r1" x="2208.2" y="800.8" textLength="12.2" clip-path="url(#terminal-3805869650-line-32)">
</text><text class="terminal-3805869650-r1" x="2208.2" y="825.2" textLength="12.2" clip-path="url(#terminal-3805869650-line-33)">
</text><text class="terminal-3805869650-r1" x="2208.2" y="849.6" textLength="12.2" clip-path="url(#terminal-3805869650-line-34)">
</text><text class="terminal-3805869650-r1" x="2208.2" y="874" textLength="12.2" clip-path="url(#terminal-3805869650-line-35)">
</text><text class="terminal-3805869650-r1" x="2208.2" y="898.4" textLength="12.2" clip-path="url(#terminal-3805869650-line-36)">
</text><text class="terminal-3805869650-r1" x="2208.2" y="922.8" textLength="12.2" clip-path="url(#terminal-3805869650-line-37)">
</text><text class="terminal-3805869650-r1" x="2208.2" y="947.2" textLength="12.2" clip-path="url(#terminal-3805869650-line-38)">
</text><text class="terminal-3805869650-r9" x="0" y="971.6" textLength="36.6" clip-path="url(#terminal-3805869650-line-39)">&#160;q&#160;</text><text class="terminal-3805869650-r2" x="36.6" y="971.6" textLength="61" clip-path="url(#terminal-3805869650-line-39)">Quit&#160;</text><text class="terminal-3805869650-r9" x="97.6" y="971.6" textLength="48.8" clip-path="url(#terminal-3805869650-line-39)">&#160;f1&#160;</text><text class="terminal-3805869650-r2" x="146.4" y="971.6" textLength="61" clip-path="url(#terminal-3805869650-line-39)">Help&#160;</text><text class="terminal-3805869650-r9" x="207.4" y="971.6" textLength="48.8" clip-path="url(#terminal-3805869650-line-39)">&#160;f2&#160;</text><text class="terminal-3805869650-r2" x="256.2" y="971.6" textLength="73.2" clip-path="url(#terminal-3805869650-line-39)">Setup&#160;</text><text class="terminal-3805869650-r9" x="329.4" y="971.6" textLength="48.8" clip-path="url(#terminal-3805869650-line-39)">&#160;f5&#160;</text><text class="terminal-3805869650-r2" x="378.2" y="971.6" textLength="97.6" clip-path="url(#terminal-3805869650-line-39)">Refresh&#160;</text><text class="terminal-3805869650-r10" x="2061.8" y="971.6" textLength="12.2" clip-path="url(#terminal-3805869650-line-39)">▏</text><text class="terminal-3805869650-r9" x="2074" y="971.6" textLength="24.4" clip-path="url(#terminal-3805869650-line-39)">^p</text><text class="terminal-3805869650-r2" x="2098.4" y="971.6" textLength="97.6" clip-path="url(#terminal-3805869650-line-39)">&#160;palette</text>
    </g>
    </g>
</svg>
